{
	"asset":{
		"version":"2.0",
		"generator":"Created using the official Cinema 4D glTF Exporter 1.000x284978"
	},
	"scenes":[{
		"nodes":[0]
	}],
	"nodes":[{
		"name":"Hull",
		"mesh":0
	}],
	"materials":[{
		"pbrMetallicRoughness":{
			"baseColorFactor":[0.800000011920929,
			0.800000011920929,
			0.800000011920929,
			1.0],
			"metallicFactor":1.0,
			"roughnessFactor":0.5
		},
		"emissiveFactor":[0.0,
		0.0,
		0.0],
		"alphaMode":"OPAQUE",
		"doubleSided":false,
		"name":"Hull.1"
	}],
	"meshes":[{
		"name":"Hull",
		"primitives":[{
			"attributes":{
				"POSITION":1,
				"TEXCOORD_0":2
			},
			"indices":0,
			"material":0
		}]
	}],
	"accessors":[{
		"bufferView":0,
		"type":"SCALAR",
		"componentType":5123,
		"count":3780,
		"byteOffset":0,
		"min":[0],
		"max":[1352]
	},
	{
		"bufferView":1,
		"type":"VEC3",
		"componentType":5126,
		"count":1353,
		"byteOffset":0,
		"min":[-0.0014036600477993489,
		0.00004350000017439015,
		-0.008221769705414772],
		"max":[0.0014036600477993489,
		0.004106579814106226,
		0.008221769705414772]
	},
	{
		"bufferView":1,
		"type":"VEC2",
		"componentType":5126,
		"count":1353,
		"byteOffset":12,
		"min":[0.0,
		0.0],
		"max":[0.9438899755477905,
		1.0]
	}],
	"bufferViews":[{
		"buffer":0,
		"byteOffset":0,
		"byteLength":7560,
		"target":34963
	},
	{
		"buffer":0,
		"byteOffset":7560,
		"byteLength":27060,
		"byteStride":20,
		"target":34962
	}],
	"buffers":[{
		"uri":"data:application/octet-stream;base64,",
		"byteLength":34620
	}]
}