{
	"asset":{
		"version":"2.0",
		"generator":"Created using the official Cinema 4D glTF Exporter 1.000x284978"
	},
	"images":[{
		"uri":"data:image/jpeg;base64,"
	}],
	"scenes":[{
		"nodes":[0]
	}],
	"nodes":[{
		"name":"Hull",
		"translation":[0.0,
		0.2252240777015686,
		0.3155726492404938],
		"rotation":[0.0,
		0.0,
		0.0,
		-1.0],
		"scale":[1.0,
		1.0,
		1.0],
		"mesh":0
	}],
	"materials":[{
		"pbrMetallicRoughness":{
			"baseColorTexture":{
				"index":0
			},
			"baseColorFactor":[0.8,
			0.8,
			0.8,
			1.0],
			"metallicFactor":0.0,
			"roughnessFactor":0.5
		},
		"emissiveFactor":[0.0,
		0.0,
		0.0],
		"alphaMode":"OPAQUE",
		"doubleSided":false,
		"name":"Hull.1"
	}],
	"meshes":[{
		"name":"Hull",
		"primitives":[{
			"attributes":{
				"POSITION":1,
				"TEXCOORD_0":2
			},
			"indices":0,
			"material":0
		}]
	}],
	"accessors":[{
		"bufferView":0,
		"type":"SCALAR",
		"componentType":5123,
		"count":3780,
		"byteOffset":0,
		"min":[0],
		"max":[1347]
	},
	{
		"bufferView":1,
		"type":"VEC3",
		"componentType":5126,
		"count":1348,
		"byteOffset":0,
		"min":[-0.14036595821380616,
		-0.2208743393421173,
		-1.1377493143081666],
		"max":[0.14036595821380616,
		0.18543407320976258,
		0.5066039562225342]
	},
	{
		"bufferView":1,
		"type":"VEC2",
		"componentType":5126,
		"count":1348,
		"byteOffset":12,
		"min":[0.0013025668449699879,
		0.0013025668449699879],
		"max":[0.9117484092712402,
		0.996108889579773]
	}],
	"bufferViews":[{
		"buffer":0,
		"byteOffset":0,
		"byteLength":7560,
		"target":34963
	},
	{
		"buffer":0,
		"byteOffset":7560,
		"byteLength":26960,
		"byteStride":20,
		"target":34962
	}],
	"buffers":[{
		"uri":"data:application/octet-stream;base64,",
		"byteLength":34520
	}],
	"samplers":[{
		"magFilter":9729,
		"minFilter":9729,
		"wrapS":10497,
		"wrapT":10497
	}],
	"textures":[{
		"sampler":0,
		"source":0
	}]
}